<?xml version="1.0" encoding="UTF-8"?>
<svg id="Layer_2" data-name="Layer 2" xmlns="http://www.w3.org/2000/svg" viewBox="0 0 114.99 83.7">
  <defs>
    <style>
      .cls-1 {
        fill: #272525;
        stroke-width: 0px;
      }
    </style>
  </defs>
  <g id="Layer_1-2" data-name="Layer 1">
    <g>
      <path class="cls-1" d="m76.02,51.97c0,.88.46,1.51,1.37,1.88v-3.69l-.16.07c-.81.41-1.21.99-1.21,1.73Z"/>
      <path class="cls-1" d="m81.71,63.83c.16-.08.31-.16.45-.25.81-.52,1.21-1.26,1.22-2.21,0-1.02-.56-1.71-1.68-2.09v4.55Z"/>
      <path class="cls-1" d="m70.38.82l-.3-.12s-.08-.03-.12-.05c-1.9-.7-3.63-.82-5.48-.43-.04,0-.08.02-.12.03l-.19.05C46.9,4.99,23.95,11.2,12.65,14.16c-.09.02-.17.05-.25.08l-.76.3c-4.21,1.12-7.57,1.74-9.48,1.74-1.17,0-2.12.95-2.12,2.13v1.55c-.02.13-.04.27-.03.4l.03,19.56c-.1.57.03,1.16.38,1.63.4.55,1.04.88,1.72.88,5.87,0,9.86,3.15,14.47,6.8,1,.79,2.01,1.59,3.05,2.36,4.22,3.14,9.57,6.35,17.23,6.35,3.25,0,5.88-.03,7.96-.1h9.15c.32,14.29,11.41,25.85,24.91,25.85s24.94-11.89,24.94-26.5c0-2.83-.43-5.58-1.25-8.23.08.03.16.07.24.09.35.11.73.2,1.17.27,1.12.17,1.95.13,2.85-.05,4.66-.5,8.15-4.53,8.15-9.45,0-2.48-.93-4.83-2.6-6.63-.03-.04-.07-.08-.11-.12-.62-.64-1.3-1.18-2.04-1.6L70.99,1.15c-.19-.15-.4-.26-.62-.33Zm8.52,80.04c-11.63,0-21.25-9.76-22.04-22.04h5.46c3.14,0,5.83-2.1,6.86-5.04.22.9.61,1.73,1.14,2.49,1.24,1.77,3.13,2.98,5.64,3.61v1.49c-.27-.24-.54-.52-.81-.82-.49-.65-1.21-1-2.02-1-.43,0-.9.18-1.22.33-.05.02-.11.05-.15.08l-2.11,1.32s0,0,0,0c-.78.49-1.21,1.24-1.19,2.11,0,.53.19,1.04.52,1.46.62.91,1.45,1.79,2.45,2.6,1.35,1.11,2.87,1.9,4.53,2.35v.91c0,1.45,1.14,2.62,2.54,2.62h2.07c1.4,0,2.55-1.18,2.55-2.62v-.89c1.39-.35,2.63-.91,3.72-1.67,2.31-1.63,3.51-3.9,3.56-6.76.04-1.82-.46-3.4-1.47-4.7-1.33-1.69-3.29-2.84-5.82-3.42v-.36c.3.11.62.16.94.16.61.04,1.18-.27,1.4-.39.04-.02.08-.04.12-.07l2.33-1.55c.7-.47,1.09-1.17,1.11-1.98,0-.63-.22-1.2-.67-1.67-1.4-1.68-3.15-2.83-5.23-3.43v-1.22c0-1.45-1.14-2.62-2.55-2.62h-2.07c-1.4,0-2.54,1.18-2.54,2.62v1.11c-.75.19-1.46.44-2.11.76-2.58,1.25-3.87,2.94-4.46,4.58-.54-2.16-1.96-4.02-3.93-5.01-1.01-.51-2.07-.77-3.15-.77h-1.36c4.13-6.15,10.81-9.88,17.93-9.88.32,0,.64.02.96.05l17.04,11.78,1.8,1.39c1.52,3.29,2.3,6.81,2.3,10.45,0,13.05-9.91,23.66-22.1,23.66Zm8.4-32.51c.21.2.31.43.3.7,0,.33-.17.61-.48.82l-2.32,1.55h0s-.41.23-.71.22c-.37,0-.69-.12-.96-.37-.45-.42-.92-.75-1.41-.99v4.16c2.77.41,4.81,1.45,6.12,3.12.81,1.04,1.2,2.31,1.17,3.8-.04,2.39-1.04,4.26-2.96,5.62-1.22.86-2.67,1.41-4.32,1.67v2.05c0,.67-.51,1.2-1.13,1.2h-2.07c-.62,0-1.13-.54-1.13-1.2v-2.05c-1.87-.32-3.56-1.08-5.05-2.31-.92-.75-1.66-1.53-2.21-2.35-.16-.19-.24-.4-.25-.64,0-.36.17-.66.53-.88l2.11-1.32h0s.41-.2.62-.2c.38,0,.69.16.91.48,1.04,1.21,2.15,2.03,3.33,2.47v-5.19c-2.71-.45-4.68-1.53-5.89-3.26-.72-1.01-1.09-2.19-1.12-3.5-.04-2.68,1.32-4.71,4.1-6.06.86-.42,1.83-.71,2.9-.87v-2.28c0-.66.5-1.21,1.13-1.21h2.07c.62,0,1.13.54,1.13,1.21v2.34c2.28.43,4.14,1.51,5.59,3.27Zm-30.09-4.19c-.04.08-.06.15-.09.23h-11.09c-2.04-.44-3.51-2.39-3.51-4.69,0-1.66.8-3.19,2.1-4.06.66-.19,2.14-.61,4.08-1.15l1.52-.43c1.88-.48,3.84-1.03,5.76-1.63l.38-.11c8.29-2.34,13.57-3.81,14.98-4.18.44-.02.85,0,1.18.05l3.84,2.65c-7.96.87-15.14,5.8-19.16,13.31Zm50.55-9.22c.09.07.18.13.28.18.41.23.8.53,1.16.89.02.02.04.04.05.06.96,1.01,1.48,2.34,1.48,3.75,0,2.75-1.9,5-4.42,5.23-.09,0-.18.02-.27.04-.42.1-.78.13-1.38.03-.19-.03-.38-.07-.54-.12-.21-.07-.41-.16-.67-.3-.14-.07-.27-.15-.4-.24-.03-.02-.06-.04-.1-.07l-4.21-3.25s-.06-.04-.09-.07l-24.06-16.63c-.21-.14-.43-.25-.67-.31-.88-.23-1.88-.31-3.02-.24-.13,0-.26.03-.39.06-1.39.35-9.09,2.51-15.31,4.26l-.43.12c-1.9.59-3.79,1.12-5.66,1.6l-1.57.44c-2.32.65-3.97,1.12-4.38,1.24-.17.05-.34.12-.49.21-2.72,1.6-4.41,4.61-4.41,7.86,0,4.44,3.03,8.18,7.2,8.91.12.02.24.03.37.03h15.28c1.2,0,2.18,1.11,2.18,2.47s-.98,2.47-2.18,2.47h-16.34c-2.11.07-4.69.1-7.9.1-6.41,0-10.85-2.65-14.7-5.51-1-.75-1.98-1.52-2.95-2.28-4.31-3.41-8.75-6.92-14.95-7.6v-15.33l-.03-2.27c.02-.09.03-.19.03-.29,2.21-.25,5.08-.85,8.57-1.78.08-.02.16-.05.24-.08l.77-.3c11.35-2.98,34.22-9.17,51.43-13.84l.12-.03c1.03-.21,1.93-.15,3.04.26l.18.07,37.47,28.96,1.66,1.28Z"/>
    </g>
  </g>
</svg>