<?xml version="1.0" encoding="UTF-8"?>
<svg id="Layer_2" data-name="Layer 2" xmlns="http://www.w3.org/2000/svg" viewBox="0 0 109.78 102.16">
  <defs>
    <style>
      .cls-1 {
        fill: #272525;
        stroke-width: 0px;
      }
    </style>
  </defs>
  <g id="Layer_1-2" data-name="Layer 1">
    <g>
      <path class="cls-1" d="m68.83,29.74c-8.61-2.22-20.03.45-26.73,9.51-7.18-9.61-18.67-11.83-26.94-9.62C5.81,32.12,0,39.9,0,49.93c0,22.93,39.22,50.68,40.89,51.85.37.26.79.38,1.22.38s.86-.13,1.22-.38c1.67-1.17,40.89-28.92,40.89-51.85,0-10.01-5.9-17.75-15.4-20.19Zm-8.17,51.97c-7.75,7.58-15.6,13.54-18.55,15.71-2.94-2.16-10.76-8.1-18.51-15.67-12.66-12.37-19.35-23.37-19.35-31.82s4.49-14.19,12-16.2c1.58-.42,3.3-.65,5.1-.65,6.71,0,14.35,3.18,18.92,11.12.38.66,1.08,1.08,1.86,1.07.77,0,1.47-.43,1.84-1.1,5.21-9.45,15.92-12.34,23.79-10.31,7.64,1.97,12.21,7.98,12.21,16.07s-6.68,19.42-19.31,31.78Z"/>
      <path class="cls-1" d="m67.52,3.56c0,1.96,1.59,3.55,3.55,3.55,17.42,0,31.6,14.17,31.6,31.6,0,1.96,1.6,3.55,3.56,3.55s3.55-1.59,3.55-3.55C109.78,17.36,92.42,0,71.07,0c-1.96,0-3.55,1.6-3.55,3.56Zm40.28,35.15c0,.87-.71,1.57-1.57,1.57s-1.57-.7-1.57-1.57c0-18.52-15.06-33.58-33.58-33.58-.87,0-1.57-.7-1.57-1.57s.71-1.57,1.57-1.57c20.25,0,36.72,16.47,36.72,36.72Z"/>
      <path class="cls-1" d="m90.13,39.12c0,1.96,1.59,3.56,3.55,3.56s3.55-1.6,3.55-3.56c0-14.65-11.92-26.58-26.57-26.58-1.96,0-3.56,1.59-3.56,3.55s1.6,3.55,3.56,3.55c10.73,0,19.46,8.73,19.46,19.47Zm-21.04-23.02c0-.87.71-1.57,1.57-1.57,13.56,0,24.59,11.03,24.59,24.59,0,.87-.7,1.57-1.57,1.57s-1.57-.7-1.57-1.57c0-11.83-9.62-21.45-21.45-21.45-.87,0-1.57-.7-1.57-1.57Z"/>
    </g>
  </g>
</svg>