<?xml version="1.0" encoding="UTF-8"?>
<svg id="Layer_2" data-name="Layer 2" xmlns="http://www.w3.org/2000/svg" viewBox="0 0 117.58 78.01">
  <defs>
    <style>
      .cls-1 {
        fill: #272525;
        stroke-width: 0px;
      }
    </style>
  </defs>
  <g id="Layer_1-2" data-name="Layer 1">
    <g>
      <path class="cls-1" d="m34.04,75.95c0,.54.21,1.07.59,1.46.38.39.91.61,1.45.61h45.05c1.1,0,2-.88,2.03-1.98,0-.28.08-3.16-.52-7.12h32.89c1.1,0,2-.88,2.03-1.97.02-.7.44-17.2-9.9-26.68-.73-.67-1.83-.72-2.61-.11-.12.09-12.15,9.13-23.35,0-.77-.62-1.87-.61-2.62.04-.24.21-3.53,3.14-6.39,8.79-.66-.29-1.45-.21-2.04.25-.49.38-12.21,9.09-23.36.01-.54-.44-1.26-.56-1.9-.36-1.44-3.09-3.42-6.11-6.18-8.63-.73-.67-1.83-.72-2.61-.11-.12.09-12.15,9.13-23.35,0-.77-.62-1.87-.61-2.62.04C10.21,40.58.25,49.43,0,66.86c0,.54.2,1.07.59,1.46.38.39.9.61,1.45.61h32.69c-.39,2.16-.65,4.49-.68,7.03Zm46.59-31.5c10.64,7.43,21.51,2.27,25.4-.08,6.05,6.5,7.21,16.32,7.43,20.47h-31.63c-1.03-4.16-2.85-8.82-6.05-12.79,1.69-3.69,3.64-6.25,4.85-7.61Zm-34.41,9.09c10.65,7.43,21.51,2.27,25.4-.08,6.05,6.5,7.21,16.32,7.43,20.47h-40.86c.72-10.94,5.74-17.8,8.02-20.39Zm-42.07,11.31c.72-10.95,5.74-17.81,8.02-20.4,10.65,7.43,21.51,2.27,25.41-.08,2.09,2.24,3.58,4.88,4.67,7.54-2.03,2.5-4.84,6.81-6.6,12.93H4.15Z"/>
      <path class="cls-1" d="m5.3,19.27c0,10.62,8.64,19.25,19.26,19.25h0c5.14,0,9.97-2.01,13.61-5.65.5-.5.97-1.04,1.41-1.58,1.42,9.23,9.4,16.32,19.02,16.32h0c5.14,0,9.97-2.01,13.61-5.65,3.04-3.04,4.92-6.91,5.46-11.09,3.52,4.63,9.07,7.64,15.33,7.64h0c5.14,0,9.97-2.01,13.61-5.65,3.64-3.64,5.65-8.48,5.65-13.62,0-10.62-8.65-19.26-19.27-19.26-5.14,0-9.98,2.01-13.62,5.65-3.04,3.04-4.91,6.91-5.46,11.09-3.52-4.64-9.07-7.65-15.33-7.65-5.14,0-9.98,2.01-13.62,5.65-.5.5-.97,1.04-1.41,1.58C42.15,7.1,34.18,0,24.56,0c-5.14,0-9.98,2.01-13.62,5.65-3.64,3.64-5.65,8.48-5.64,13.62Zm76.97-10.74c2.88-2.87,6.69-4.46,10.74-4.46,8.37,0,15.19,6.81,15.2,15.19,0,4.05-1.58,7.86-4.46,10.74-2.87,2.87-6.68,4.46-10.73,4.46h0c-8.38,0-15.19-6.81-15.2-15.19,0-4.05,1.58-7.87,4.45-10.74Zm-34.41,9.09c2.87-2.88,6.69-4.46,10.74-4.46,8.37,0,15.19,6.81,15.2,15.19,0,4.05-1.58,7.86-4.46,10.74-2.87,2.87-6.68,4.46-10.73,4.46h0c-8.37,0-15.19-6.81-15.19-15.19,0-4.05,1.58-7.87,4.45-10.74ZM24.56,4.07c8.37,0,15.19,6.81,15.19,15.19,0,4.05-1.58,7.86-4.46,10.74-2.87,2.87-6.68,4.46-10.73,4.46h0c-8.37,0-15.19-6.81-15.2-15.19,0-4.05,1.58-7.87,4.45-10.74,2.87-2.87,6.69-4.46,10.74-4.46Z"/>
    </g>
  </g>
</svg>